<?xml version="1.0" encoding="UTF-8"?>
<svg id="Capa_1" data-name="Capa 1" xmlns="http://www.w3.org/2000/svg" viewBox="0 0 1080 1080">
  <defs>
    <style>
      .cls-1 {
        fill: #113250;
      }

      .cls-2 {
        fill: #a08426;
      }
    </style>
  </defs>
  <path class="cls-2" d="M121.59,409.28c6.1-35.33,31.6-61.73,68.03-65.16l379.77-.22c14.94,162.13,205.16,251.63,339.93,158.54v363.64c0,33.27-39.72,67.72-72.65,66.27l-645.61-.1c-34.79-2.29-65.55-30.44-69.48-65.35v-457.61ZM457.71,827.11c1.38-1.38,5.24-7.85,5.84-9.69,2.93-9.06,2.15-52.43,1.31-64.18-2.8-38.98-23.43-71.53-53.96-94.73,56.01-53.58,27.14-150.68-48.73-165.4-96.33-18.68-157.46,96.58-88.62,165.4-30.53,23.19-51.16,55.74-53.96,94.73-.84,11.73-1.63,55.1,1.31,64.18,2.73,8.42,11.89,15.72,20.78,16.82h201.09c4.24-.52,11.96-4.14,14.94-7.12ZM608.07,596.14c-22.7-22.7-57.55,12.16-34.85,34.85,22.7,22.7,57.55-12.16,34.85-34.85ZM706.13,596.14c-22.7-22.7-57.55,12.16-34.85,34.85,22.7,22.7,57.55-12.16,34.85-34.85ZM804.19,596.14c-22.7-22.7-57.55,12.16-34.85,34.85,22.7,22.7,57.55-12.16,34.85-34.85ZM804.19,694.2c-2.98-2.98-10.7-6.6-14.94-7.12h-201.09c-28.38,5.68-29.63,41.36-1.49,48.96l202.59.14c19.77-2.97,29.96-26.95,14.94-41.98ZM804.19,792.26c-2.98-2.98-10.7-6.6-14.94-7.12h-201.09c-28.38,5.68-29.63,41.36-1.49,48.96l202.59.14c19.77-2.97,29.96-26.95,14.94-41.98Z"/>
  <path class="cls-1" d="M770.09,148.27c139.45-11.85,236.93,139.67,162.8,260.86-61.83,101.1-207.8,110.24-280.8,16.31-82.94-106.73-16.89-265.71,117.99-277.17ZM877.73,252.93c-9.65-9.65-24.33-9.23-34.31-.27l-80.59,79.68c-17.93-11.59-42.18-55.25-67.05-30.38-12.01,12.01-7.51,25.47,1.88,37.06,8.86,10.93,34.89,37.21,45.82,45.7,15.72,12.21,24.38,10.74,39.22-1.56,22.5-18.63,76.45-71.58,93.9-94.05,8.93-11.5,12.7-24.61,1.12-36.18Z"/>
  <path class="cls-2" d="M415.77,785.17h-147.09v-31.87c0-34.84,39.4-65.97,72.7-66.32,33.98-.35,74.39,30.75,74.39,66.32v31.87Z"/>
  <path class="cls-2" d="M335.29,540.45c66.12-8.67,76.02,90.9,12.49,97.45-64.31,6.62-74.28-89.34-12.49-97.45Z"/>
</svg>