<?xml version="1.0" encoding="UTF-8"?>
<svg id="Capa_1" data-name="Capa 1" xmlns="http://www.w3.org/2000/svg" viewBox="0 0 1080 1080">
  <defs>
    <style>
      .cls-1 {
        fill: #113250;
      }

      .cls-2 {
        fill: #a08426;
      }
    </style>
  </defs>
  <path class="cls-1" d="M513.1,77.2c305.55-20.27,504.18,318.2,332.34,573.44-150.99,224.27-487.27,213.62-623.54-19.63C84.78,396.33,242.71,95.14,513.1,77.2ZM522.52,165.74c-202.5,13.21-325.75,232.08-228.51,412,104.73,193.78,385.44,194.35,491.05,1.22,105.2-192.38-44.37-427.46-262.53-413.23Z"/>
  <path class="cls-1" d="M360.38,1000.95c-5.44,4.52-12.47,2.85-14.9-3.78l-48.5-132.36-143,24.3-4.67-2.92-.93-7.58,94.81-163.37c38.75,42,85.57,76.58,138.51,98.8l71.49,24.63-92.81,162.29Z"/>
  <path class="cls-1" d="M929.29,888.07c-6.04,5.46-129.06-22.48-146.56-23.25l-48.49,132.35c-1.91,4.62-5.53,7.18-10.68,6.33-9.44-1.55-84.7-147.12-97.03-164.85,18.71-7.5,39.19-11.68,58.34-18.94,58.03-22.01,109.77-59.14,151.66-104.48l95.07,164.91c.18,2.12-.77,6.53-2.31,7.92Z"/>
  <path class="cls-2" d="M516.88,199.65c198.2-16.61,335.84,194.29,236.15,368.01-94.08,163.96-333.82,163.16-427-1.23-87.44-154.26,14.21-351.98,190.85-366.78ZM660.01,323.85c-3.29.35-7.1,1.98-10.35,2.92l-157.82,156.71-52.67-65.97c-28.12-25.17-69.18,3.16-53.27,38.2l79.58,101.25c13.63,10.89,31.94,12.45,45.25.06l181.41-182.13c15.08-24.32-3.83-54.09-32.12-51.05Z"/>
</svg>